<?xml version="1.0" encoding="utf-8"?>
<!-- Svg Vector Icons : http://www.onlinewebfonts.com/icon -->
<!DOCTYPE svg PUBLIC "-//W3C//DTD SVG 1.1//EN" "http://www.w3.org/Graphics/SVG/1.1/DTD/svg11.dtd">
<svg version="1.1" xmlns="http://www.w3.org/2000/svg" xmlns:xlink="http://www.w3.org/1999/xlink" x="0px" y="0px" viewBox="0 0 1000 1000" enable-background="new 0 0 1000 1000" width="20" height="20"  xml:space="preserve">
<metadata> Svg Vector Icons : http://www.onlinewebfonts.com/icon </metadata>
<g><g transform="translate(0.000000,511.000000) scale(0.100000,-0.100000)"><path d="M5421.1,4443.4l-583.8-277.5l-468.9,21.1c-258.4,11.5-501.5,23-543.6,26.8c-61.3,7.7-84.2-1.9-141.6-53.6c-53.6-49.8-65.1-72.7-55.5-109.1c9.6-38.3,53.6-63.2,243.1-139.7l229.7-93.8l-208.6-99.5c-333-160.8-310.1-157-574.2-109.1c-287.1,53.6-338.8,53.6-365.6,3.8c-32.5-61.3,5.7-103.4,157-170.4l139.7-61.3l-5.7-84.2c-7.7-76.6,0-93.8,59.3-153.1c45.9-45.9,84.2-67,122.5-67c86.1,0,2718,1249.9,2786.9,1322.6c57.4,63.2,65.1,126.3,23,208.6c-38.3,72.7-101.4,114.8-172.3,114.8C6029.8,4721,5763.7,4606.1,5421.1,4443.4z"/><path d="M4559.8,2502.6c-373.2-51.7-748.4-164.6-1081.4-325.4C2528.9,1719.7,1788.2,776.1,1575.7-247.9l-34.5-168.4l-710.1-5.7l-712-3.8v-813.5v-813.5h4890.4H9900v813.5v813.5h-723.5h-725.4l-32.5,158.9c-155,725.4-566.6,1435.5-1110.2,1912.2c-468.9,409.6-1050.8,700.5-1649.9,821.1c-162.7,32.5-292.9,42.1-591.5,47.9C4856.4,2516,4628.7,2512.1,4559.8,2502.6z M5436.4,2345.6l157-21v-629.7V1067H5000h-593.4v629.7v631.6l111,11.5c59.3,7.7,118.7,15.3,128.2,19.1C4693.7,2376.3,5294.8,2366.7,5436.4,2345.6z M4253.5,1679.5V1067h-602.9h-602.9v342.6v340.7l105.3,70.8c153.1,101.5,436.4,248.8,610.6,317.7c134,51.7,436.4,149.3,476.6,151.2C4247.8,2292,4253.5,2016.4,4253.5,1679.5z M6058.5,2196.3c252.7-84.2,543.6-224,748.4-359.8l135.9-90l5.7-338.8l3.8-340.7h-602.9h-602.9V1670v602.9h44C5813.5,2272.9,5934.1,2238.4,6058.5,2196.3z M2911.8,1344.6l-1.9-277.5h-275.6h-277.5l23,42.1c30.6,57.4,484.3,513,511,513C2906,1622.1,2911.8,1536,2911.8,1344.6z M7308.3,1434.5c93.8-91.9,208.6-212.5,252.7-268l84.2-99.5h-269.9h-269.9v268c0,147.4,7.7,268,15.3,268C7130.4,1603,7212.6,1528.3,7308.3,1434.5z M2894.5,244v-650.8h-593.4c-675.7,0-612.5-21-564.6,191.4c70.8,306.3,256.5,748.4,417.3,1001l70.8,109.1h335h335V244z M4253.5,244v-650.8h-602.9h-602.9V244v650.8h602.9h602.9V244z M5593.4,244v-650.8H5000h-593.4V244v650.8H5000h593.4V244z M6952.3,244v-650.8h-602.9h-602.9V244v650.8h602.9h602.9V244z M7857.7,747.4c174.2-290.9,331.1-679.5,405.8-1006.8c15.3-72.7,28.7-134,28.7-139.7c0-3.8-266.1-7.7-593.4-7.7h-593.4V244v650.8h331.1h331.1L7857.7,747.4z M1554.7-1229.8v-650.8H932.6H310.5v650.8v650.8h622.1h622.1V-1229.8z M2902.2-630.7c5.7-30.6,9.6-323.5,9.6-650.8l-1.9-599.1h-601h-601v650.8v650.8h591.4h591.4L2902.2-630.7z M4253.5-1229.8v-650.8h-602.9h-602.9v650.8v650.8h602.9h602.9V-1229.8z M5593.4-1229.8v-650.8H5000h-593.4v650.8v650.8H5000h593.4V-1229.8z M6952.3-1229.8v-650.8h-602.9h-602.9v650.8v650.8h602.9h602.9V-1229.8z M8292.2-1229.8v-650.8h-593.4h-593.4v650.8v650.8h593.4h593.4V-1229.8z M9708.6-1229.8v-650.8H9077h-631.6v650.8v650.8H9077h631.6V-1229.8z"/><path d="M1765.2-3344.9v-1158h593.4H2952l-3.8,1154.2l-5.7,1152.3l-587.6,5.7l-589.5,3.8V-3344.9z M2626.6-3383.2v-564.6h-268h-268v564.6v564.6h268h268V-3383.2z"/><path d="M100-3272.1c0-1033.6,1.9-1070,38.3-1131.2c21.1-34.4,61.3-70.8,88-80.4c28.7-11.5,329.2-19.1,717.8-19.1h668v1148.4V-2206H856.1H100V-3272.1z M1286.7-3383.2v-564.6h-268h-268v564.6v564.6h268h268V-3383.2z"/><path d="M3105.1-3354.5v-1148.4h593.4h593.4v1148.4V-2206h-593.4h-593.4V-3354.5z M3966.4-3383.2v-564.6h-268h-268v564.6v564.6h268h268V-3383.2z"/><path d="M4444.9-3354.5v-1148.4h593.4h593.4v1148.4V-2206h-593.4h-593.4V-3354.5z M5296.7-3383.2v-555.1l-262.2-5.7l-264.1-5.7v566.6v566.6l264.1-5.7l262.2-5.7V-3383.2z"/><path d="M5784.8-3354.5v-1148.4h593.4h593.4v1148.4V-2206h-593.4h-593.4V-3354.5z M6627-3383.2v-564.6h-268h-268v564.6v564.6h268h268V-3383.2z"/><path d="M7124.6-3354.5v-1148.4H7718h593.4v1148.4V-2206H7718h-593.4V-3354.5z M7966.8-3383.2v-564.6h-268h-268v564.6v564.6h268h268V-3383.2z"/><path d="M8445.3-3354.5v-1148.4H9098h652.7l65.1,65.1l65.1,65.1v1083.4V-2206h-717.8h-717.8V-3354.5z M9306.6-3383.2v-564.6h-268h-268v564.6v564.6h268h268V-3383.2z"/></g></g>
</svg>