<?xml version="1.0" encoding="utf-8"?>
<!-- Svg Vector Icons : http://www.onlinewebfonts.com/icon -->
<!DOCTYPE svg PUBLIC "-//W3C//DTD SVG 1.1//EN" "http://www.w3.org/Graphics/SVG/1.1/DTD/svg11.dtd">
<svg version="1.1" xmlns="http://www.w3.org/2000/svg" xmlns:xlink="http://www.w3.org/1999/xlink"  x="0px" y="0px" viewBox="0 0 1000 1000" enable-background="new 0 0 1000 1000" xml:space="preserve">
<metadata> Svg Vector Icons : http://www.onlinewebfonts.com/icon </metadata>
<g><g transform="translate(0.000000,511.000000) scale(0.100000,-0.100000)"><path d="M4718.3,4972.1c-517.8-182.3-1008.4-907.6-1291.5-1908.2c-23.3-85.3-48.5-162.9-56.2-170.6c-7.8-9.7-153.2,15.5-321.9,52.4c-921.1,203.6-1623.1,184.2-2053.6-56.2c-118.3-65.9-269.6-203.6-339.4-310.3c-124.1-186.2-151.3-523.6-65.9-816.4c126-436.3,397.5-859.1,905.6-1407.9l228.8-248.2L1505-131.9c-484.8-521.7-758.2-930.8-899.8-1351.7c-50.4-147.4-56.2-190-56.2-407.2c0-279.3,33-389.8,159-544.9c205.5-250.2,508.1-382,979.3-424.7c384-36.9,928.9,19.4,1466.1,151.3l217.2,54.3l21.3-79.5c11.6-42.7,62.1-203.6,114.4-358.7c288.9-857.1,653.5-1392.4,1101.5-1615.4l164.8-81.5h226.9h226.9l164.8,81.5c356.8,178.4,659.3,554.6,927,1157.7c95,213.3,290.9,775.7,290.9,833.9c0,15.5,7.8,34.9,19.4,40.7c9.7,5.8,155.1-19.4,323.9-56.2c742.7-164.8,1332.3-184.2,1768.6-58.2c211.4,62.1,329.7,126.1,469.3,256c190.1,174.5,269.6,360.7,269.6,628.3c0,494.5-302.5,1054.9-940.5,1747.2l-244.3,265.7l244.3,265.7c634.1,686.5,940.5,1254.7,940.5,1743.4c0,550.7-393.7,886.2-1130.6,959.9c-360.7,36.8-826.1-7.8-1376.8-129.9c-168.7-36.8-314.2-62.1-323.9-56.2c-11.6,5.8-19.4,25.2-19.4,40.7c0,58.2-211.4,661.3-306.4,870.7c-256,570.1-562.4,946.3-911.5,1120.9c-155.1,75.6-174.5,81.5-360.7,87.3C4871.5,5012.8,4813.3,5007,4718.3,4972.1z M5286.5,4661.8c376.2-184.2,744.7-789.3,1004.5-1656.1c34.9-116.4,62.1-213.3,60.1-215.3c-2-1.9-64-21.3-139.6-46.5c-240.4-77.6-653.5-234.6-930.8-352.9l-271.5-118.3l-77.6,31c-42.7,15.5-213.3,85.3-378.1,153.2c-164.8,69.8-436.3,172.6-601.2,228.8c-164.8,56.2-302.5,104.7-304.5,106.7c-13.6,7.8,159,533.3,236.6,727.2c271.5,674.8,608.9,1097.6,958,1196.5C4974.3,4753,5143,4733.6,5286.5,4661.8z M2387.3,2773c267.6-31,861-151.3,890.1-180.3c11.6-11.6-1.9-120.2-31-267.6c-60.1-308.3-124.1-748.5-139.6-967.7l-13.6-164.8L2936.2,1082c-221.1-153.2-589.5-440.2-806.7-624.4l-184.2-157.1l-205.6,211.4c-733,756.3-1062.7,1464.1-864.9,1867.5C1045.4,2726.5,1584.5,2866.1,2387.3,2773z M8591,2747.8c277.3-73.7,446-190.1,531.3-366.5c46.5-95,54.3-133.8,54.3-275.4c-2-420.8-327.7-985.1-921.1-1597.9l-201.7-207.5l-184.2,157.1c-217.2,186.2-585.7,471.2-808.7,626.4c-157.1,108.6-161,114.4-161,192c0,120.2-89.2,738.9-147.4,1037.5c-31,162.9-44.6,265.7-33,277.3c27.1,27.1,612.8,149.3,866.8,182.3C7892.9,2811.8,8393.2,2798.2,8591,2747.8z M3884.4,2412.3c335.5-118.3,766-296.7,750.5-310.3c-7.8-7.8-147.4-83.4-310.3-170.6c-162.9-85.3-434.4-240.5-603.1-341.3c-170.7-100.8-314.2-184.2-320-184.2c-3.9,0-5.8,29.1,0,64c44.6,337.4,73.7,529.4,118.3,764.1l52.3,275.4l48.5-11.6C3647.9,2491.8,3768.1,2453,3884.4,2412.3z M6479.1,2230c27.1-137.7,62.1-356.8,79.5-484.8c17.5-128,34.9-256,40.7-285.1c3.9-31,3.9-54.3-1.9-54.3c-5.8,0-147.4,81.5-314.2,180.3c-166.8,100.8-440.2,254-605,343.2c-164.8,87.3-306.4,164.8-314.2,172.6c-17.4,15.5,531.4,236.6,837.8,339.4c112.5,36.8,209.4,62.1,217.2,54.3C6424.8,2488,6453.9,2369.7,6479.1,2230z M5234.1,1840.2c459.6-230.8,1279.9-705.9,1380.7-802.8c33-31,36.8-83.4,46.5-612.8c5.8-320,3.9-727.2-3.9-907.6L6644-808.8l-217.2-141.6c-285-186.2-760.2-455.7-1130.6-643.8l-298.6-151.3l-304.4,155.1c-391.7,199.7-833.9,453.8-1115.1,636.1l-223,145.4L3341.5-483c-7.8,180.3-9.7,587.6-5.8,907.6c9.7,531.3,13.6,581.8,46.5,612.8c137.7,126.1,1520.4,909.5,1613.4,911.4C5009.2,1948.8,5115.8,1900.4,5234.1,1840.2z M3050.6,110.4v-713.6l-106.7,77.6c-321.9,238.5-775.7,607-775.7,632.2c0,19.4,366.5,323.8,645.8,535.2c129.9,98.9,236.6,180.3,236.6,180.3C3050.6,824.1,3050.6,502.2,3050.6,110.4z M7287.8,564.2c192-145.4,543-442.2,543-457.7c0-19.4-374.3-329.7-649.6-535.3l-232.7-176.5v711.7v709.8l106.7-77.6C7113.3,694.2,7218,616.6,7287.8,564.2z M2358.3-430.6c161-129.9,391.7-306.4,513.9-391.7l221.1-157.1l13.6-170.6c15.5-219.2,79.5-645.8,139.6-961.9c27.1-137.7,42.7-256,33-263.7c-19.4-19.4-389.8-106.7-607-143.5c-630.3-108.6-1198.4-83.4-1497.1,67.9c-413.1,207.5-467.3,599.2-166.8,1186.8c157.1,304.5,382,603.1,731.1,967.7l199.8,209.4l64-52.4C2038.3-170.7,2199.2-300.7,2358.3-430.6z M8594.9-671.1c500.3-626.4,690.4-1165.5,529.4-1495.1c-217.2-442.1-1022-543-2175.8-273.4c-116.4,27.1-221.1,56.2-230.8,64c-7.7,9.7,7.8,131.9,34.9,275.4c58.2,296.7,147.4,917.3,147.4,1035.5c0,81.5,0,81.5,221.1,236.6c223,159,607,459.6,816.4,641.9l116.4,100.8l205.6-213.3C8371.8-415.1,8523.1-581.9,8594.9-671.1z M3717.7-1375c166.8-98.9,438.3-252.1,603.1-341.3c164.8-87.3,306.4-164.8,314.2-172.6c17.5-15.5-434.4-197.8-799-323.9c-131.9-46.5-248.2-77.6-254-69.8c-27.1,27.1-110.5,504.2-180.3,1027.8c-5.8,33-3.9,62.1,1.9,62.1C3409.3-1192.7,3550.9-1274.2,3717.7-1375z M6599.4-1245.1c-5.8-31-23.3-159-40.7-287c-34.9-273.4-120.2-731.1-141.6-750.5c-5.8-7.8-126,25.2-263.7,71.8c-358.8,124.1-806.7,306.4-789.3,323.9c7.8,5.8,149.3,85.3,314.2,172.6s436.3,240.5,601.2,339.4c164.8,98.9,306.4,182.3,314.2,182.3C6601.3-1192.7,6603.3-1216,6599.4-1245.1z M5284.6-2179.8c277.3-118.3,690.4-273.4,927-351c75.6-25.2,137.7-44.6,139.6-46.5c13.6-9.7-149.3-502.3-238.5-727.2c-246.3-608.9-529.4-1000.6-835.8-1148c-112.5-54.3-153.2-64-277.3-64c-128-1.9-164.8,7.8-275.4,62.1c-385.9,190-748.5,777.6-1004.5,1621.2c-42.7,137.7-73.7,254-71.8,254c1.9,1.9,126,44.6,275.4,95c271.5,93.1,760.2,285.1,948.3,372.3c54.3,25.2,110.5,46.5,122.2,46.5C5007.3-2065.4,5139.1-2115.8,5284.6-2179.8z"/><path d="M4733.8,855.1c-193.9-62.1-370.4-213.3-465.4-399.5c-48.5-95-54.3-126.1-54.3-290.9c0-168.7,5.8-195.9,62.1-312.2c157.1-318,529.4-486.7,874.6-397.5c159,40.7,267.6,104.7,382,226.9c139.6,149.3,174.5,242.4,174.5,473.2c0,170.6-5.8,207.5-52.4,304.5c-67.9,145.4-201.7,275.4-360.7,351c-112.5,54.3-153.2,62.1-304.5,65.9C4883.1,880.3,4784.2,870.6,4733.8,855.1z M5162.4,564.2c209.4-87.3,318-308.3,256-519.7c-71.8-250.2-345.2-384-614.7-302.5c-98.9,29.1-221.1,135.7-271.5,234.6c-58.2,112.5-46.5,308.3,27.1,416.9c54.3,83.4,186.2,172.6,290.9,199.7C4925.8,612.7,5082.9,597.2,5162.4,564.2z"/></g></g>
</svg>