<?xml version="1.0" encoding="utf-8"?>
<!-- Svg Vector Icons : http://www.onlinewebfonts.com/icon -->
<!DOCTYPE svg PUBLIC "-//W3C//DTD SVG 1.1//EN" "http://www.w3.org/Graphics/SVG/1.1/DTD/svg11.dtd">
<svg version="1.1" xmlns="http://www.w3.org/2000/svg" xmlns:xlink="http://www.w3.org/1999/xlink" x="0px" y="0px" viewBox="0 0 1000 1000" enable-background="new 0 0 1000 1000" xml:space="preserve">
<metadata> Svg Vector Icons : http://www.onlinewebfonts.com/icon </metadata>
<g><g transform="translate(0.000000,511.000000) scale(0.100000,-0.100000)"><path d="M2845.8,3384.6L703,1761.6l-6.8-597.2l-4.6-597.3H5000h4308.4l-4.6,597.3l-6.8,597.2L7154.2,3384.6C5975.7,4278.2,5006.8,5010,5000,5010S4024.3,4278.2,2845.8,3384.6z M5111.7,4045.7c75.2-41,116.3-123.1,116.3-239.4v-88.9l155-47.9c212-63.8,300.9-143.6,316.9-280.4c11.4-98,6.8-114-57-177.8c-86.6-86.6-189.2-91.2-337.4-11.4c-118.5,61.6-337.4,77.5-458.2,31.9c-91.2-34.2-189.2-134.5-189.2-193.8c0-91.2,91.2-143.6,458.2-259.9c424-134.5,528.9-202.9,629.2-403.5c173.2-355.6-11.4-772.8-405.8-911.8l-111.7-41v-116.3c0-91.2-11.4-129.9-54.7-175.5c-155-168.7-401.2-63.8-401.2,168.7v109.4l-127.7,36.5c-164.1,47.9-300.9,134.5-328.3,207.4c-41,107.1-27.4,191.5,43.3,262.2c84.4,84.3,189.2,86.6,335.1,9.1c118.5-61.5,337.4-77.5,458.2-31.9c100.3,36.5,189.2,134.5,189.2,205.2c0,104.9-100.3,164.1-433.1,257.6c-166.4,45.6-339.7,102.6-385.3,127.7c-300.9,152.7-419.4,519.7-269,825.2c75.2,152.7,200.6,264.4,387.5,348.8l129.9,57v104.9c0,88.9,11.4,116.3,77.5,182.4C4933.9,4084.5,5009.1,4098.2,5111.7,4045.7z"/><path d="M1623.9-59.8c0-93.5,0-802.4,0-1572.9c0-770.5,0-1484,0-1584.3l2.3-182.4l576.7,4.6l574.5,6.8l6.8,1750.8l4.6,1748.4h-581.3h-581.3L1623.9-59.8z"/><path d="M4411.9-1637.3l6.8-1750.8H5000h581.3l6.8,1750.8l4.6,1748.4H5000h-592.7L4411.9-1637.3z"/><path d="M7215.8-1637.3l6.8-1750.8l576.7-6.8l574.5-4.6v1755.3V111.1h-581.3h-581.3L7215.8-1637.3z"/><path d="M691.6-4322.7V-4790H5000h4308.4v467.3v467.3H5000H691.6V-4322.7z"/></g></g>
</svg>