<?xml version="1.0" encoding="utf-8"?>
<!-- Svg Vector Icons : http://www.onlinewebfonts.com/icon -->
<!DOCTYPE svg PUBLIC "-//W3C//DTD SVG 1.1//EN" "http://www.w3.org/Graphics/SVG/1.1/DTD/svg11.dtd">
<svg version="1.1" xmlns="http://www.w3.org/2000/svg" xmlns:xlink="http://www.w3.org/1999/xlink" x="0px" y="0px" viewBox="0 0 1000 1000" enable-background="new 0 0 1000 1000" xml:space="preserve">
<metadata> Svg Vector Icons : http://www.onlinewebfonts.com/icon </metadata>
<g><g><g><path d="M823.3,383.6H700.5c-6.4-125.5-83.5-226.3-180.6-237.4C516.9,69,502,10,502,10s-14.9,59-17.9,136.2C387,157.3,309.9,258.1,303.5,383.6H180.7v47.7h642.6V383.6z"/><rect x="202.6" y="445.6" width="49.6" height="200.2"/><rect x="336.1" y="445.6" width="49.6" height="200.2"/><rect x="610.7" y="445.6" width="49.6" height="200.2"/><rect x="744.2" y="445.6" width="49.6" height="200.2"/><rect x="477.2" y="445.6" width="49.6" height="200.2"/><rect x="76.3" y="726.4" width="49.6" height="200.2"/><rect x="209.8" y="726.4" width="49.6" height="200.2"/><rect x="484.4" y="726.4" width="49.6" height="200.2"/><polygon points="823.3,663 180.7,663 64,663 64,710.7 936,710.7 936,663 "/><rect x="64" y="942.3" width="871.9" height="47.7"/><rect x="617.9" y="726.4" width="49.6" height="200.2"/><rect x="739.1" y="726.4" width="49.6" height="200.2"/><rect x="872.5" y="726.4" width="49.6" height="200.2"/><rect x="350.9" y="726.4" width="49.6" height="200.2"/></g></g><g></g><g></g><g></g><g></g><g></g><g></g><g></g><g></g><g></g><g></g><g></g><g></g><g></g><g></g><g></g></g>
</svg>