<?xml version="1.0" encoding="utf-8"?>
<!-- Svg Vector Icons : http://www.onlinewebfonts.com/icon -->
<!DOCTYPE svg PUBLIC "-//W3C//DTD SVG 1.1//EN" "http://www.w3.org/Graphics/SVG/1.1/DTD/svg11.dtd">
<svg version="1.1" xmlns="http://www.w3.org/2000/svg" xmlns:xlink="http://www.w3.org/1999/xlink" x="0px" y="0px" viewBox="0 0 1000 1000" enable-background="new 0 0 1000 1000" xml:space="preserve">
<metadata> Svg Vector Icons : http://www.onlinewebfonts.com/icon </metadata>
<g><g transform="translate(0.000000,511.000000) scale(0.100000,-0.100000)"><path d="M4751.2,3606.5c-499.6-112.9-863.2-530.2-916.8-1050.8c-21.1-212.5,5.7-413.4,74.6-562.7c59.3-128.2,231.6-323.5,365.6-417.3l74.6-51.7v-174.2v-174.2l65.1-51.7c36.4-30.6,70.8-53.6,76.6-53.6c7.7,0,11.5,44,11.5,99.5v97.6l47.9-44c38.3-36.4,47.9-63.2,47.9-135.9v-91.9l126.3-40.2c68.9-21.1,151.2-38.3,181.8-38.3h55.5v134c0,120.6,3.8,134,38.3,134c34.5,0,38.3-13.4,38.3-134v-134l63.2,1.9c32.5,0,109.1,15.3,166.5,32.5l105.3,34.5l5.7,107.2c3.8,76.6,15.3,116.7,42.1,139.7c38.3,34.4,38.3,32.5,38.3-72.7c0-61.3,7.7-109.1,15.3-109.1c9.6,0,51.7,30.6,95.7,68.9l80.4,68.9v166.5V1524l74.7,51.7c134,93.8,306.3,289,365.6,417.3c68.9,149.3,95.7,350.3,74.7,562.7c-61.3,604.8-520.6,1045.1-1117.8,1071.9C4938.7,3631.4,4829.6,3623.7,4751.2,3606.5z M4779.9,2366.2c149.3-45.9,179.9-225.9,67-403.9c-74.6-114.8-193.3-172.3-344.5-160.8c-201,15.3-327.3,143.6-340.7,348.3c-7.7,137.8,11.5,174.2,120.6,212.5C4376,2394.9,4672.7,2396.8,4779.9,2366.2z M5694.8,2370c122.5-34.4,153.1-78.5,143.6-218.2c-13.4-210.5-139.7-336.9-348.4-350.3c-95.7-5.8-132.1,1.9-202.9,38.3c-147.4,80.4-235.4,260.3-193.3,400c24.9,82.3,57.4,112.9,141.6,132.1C5329.2,2394.9,5612.5,2393,5694.8,2370z M4959.8,1617.8c19.1-21.1,19.1-38.3,0-72.7c-47.9-90-135.9-120.6-166.5-57.4C4743.5,1581.4,4892.8,1698.2,4959.8,1617.8z M5176.1,1612c86.1-99.5,17.2-210.5-82.3-134c-44,34.5-76.6,101.5-63.2,135.9C5045.9,1656.1,5139.7,1652.2,5176.1,1612z"/><path d="M1933.7,2546.1l-63.2-55.5V668.4v-1822.2l63.2-55.5l61.3-55.5h3014.6h3014.6l61.3,55.5l63.2,55.5V668.4v1822.2l-63.2,55.5l-61.3,55.5h-784.8h-784.8v-112.9c0-61.3-5.7-151.2-11.5-201l-13.4-88h654.6h652.7V668.4V-862.8H5009.6H2282V668.4v1531.3h639.3h639.3l-1.9,201l-3.8,201h-779h-780.9L1933.7,2546.1z"/><path d="M3497.5,1545.1c-68.9-36.4-105.3-99.5-105.3-178c0-68.9-7.7-80.4-57.4-99.5c-132.1-49.8-139.7-254.6-11.5-333c65.1-40.2,223.9-49.8,304.3-19.1c47.9,19.1,90-1.9,844.1-446l187.6-111l-116.8-67c-105.3-59.3-124.4-63.2-178-45.9c-128.2,44-287.1,9.6-348.4-76.6c-67-97.6-15.3-266,90-292.8c38.3-9.6,42.1-19.1,36.4-86.1c-5.7-65.1,1.9-86.1,49.8-135.9c128.2-126.3,313.9-44,386.6,172.3c34.4,103.4,40.2,107.2,220.1,216.3c101.4,59.3,193.3,109.1,201,109.1s99.5-49.8,201-109.1c179.9-109.1,185.7-112.9,220.1-216.3c68.9-206.7,248.8-294.8,377.1-183.7c42.1,38.3,51.7,61.3,53.6,134c0,76.6,5.7,91.9,44,101.4c103.4,24.9,155,193.3,88.1,290.9c-61.3,86.1-220.1,120.6-348.4,76.6c-53.6-17.2-72.7-13.4-178,45.9l-116.8,67l187.6,111c754.2,444.1,796.3,465.1,844.1,446c80.4-30.6,239.3-21.1,304.3,19.1c128.3,78.5,120.6,283.3-11.5,333c-49.8,19.1-57.4,30.6-57.4,99.5c0,80.4-38.3,143.6-109.1,179.9c-134,67-294.8-55.5-338.8-258.4c-11.5-53.6-65.1-88-574.2-386.6c-308.2-181.8-572.3-329.2-583.8-329.2c-13.4,0-277.5,147.4-585.7,329.2c-513,298.6-564.6,333-576.1,386.6C3796.1,1491.5,3629.5,1617.8,3497.5,1545.1z"/><path d="M1832.2-1358.6c-21.1-9.6-419.2-384.7-886.2-834.5c-645-624-846-826.9-846-861.3c0-105.3,44-241.2,95.7-296.7l53.6-57.4H5000h4750.7l53.6,53.6c49.8,51.7,95.7,191.4,95.7,298.6c0,34.5-208.6,245-853.7,865.2c-468.9,451.7-867.1,826.9-884.3,834.5C8114.2-1337.5,1878.2-1341.3,1832.2-1358.6z M2433.2-1507.9c-103.4-139.7-105.3-139.7-317.7-139.7c-109.1,0-197.1,5.7-197.1,11.5c0,5.7,28.7,44,63.2,84.2l61.3,76.6h208.6C2446.6-1475.3,2458.1-1477.2,2433.2-1507.9z M3099.3-1555.7l-47.9-82.3l-212.5-5.7c-116.8-1.9-212.5,0-212.5,7.7c0,5.7,23,44,53.6,86.1l51.7,74.6h208.6h206.7L3099.3-1555.7z M3799.9-1561.5l-28.7-86.1h-208.6c-120.6,0-208.6,7.7-208.6,19.1c0,9.6,15.3,47.9,32.5,86.1l32.5,67h204.8h206.7L3799.9-1561.5z M4510-1536.6c-5.7-34.5-13.4-74.6-19.1-86.1c-3.8-19.1-65.1-24.9-218.2-24.9c-193.3,0-212.5,3.8-202.9,34.5c5.7,17.2,15.3,55.5,23,86.1l11.5,51.7h208.6h208.6L4510-1536.6z M5210.5-1561.5v-86.1H5000h-210.5v86.1v86.1H5000h210.5V-1561.5z M5911.1-1551.9c11.5-42.1,17.2-80.4,11.5-86.1c-15.3-15.3-402-11.5-411.5,5.7c-3.8,7.7-13.4,45.9-21.1,86.1l-13.4,70.8h206.7h208.6L5911.1-1551.9z M6613.6-1542.3c17.2-38.3,32.5-76.6,32.5-86.1c0-11.5-88-19.1-208.6-19.1h-208.6l-19.1,53.6c-9.6,28.7-24.9,67-32.5,86.1c-13.4,30.6,3.8,32.5,195.2,32.5H6581L6613.6-1542.3z M7317.9-1555.7l59.3-82.3l-197.1-5.7c-107.2-1.9-206.7-1.9-220.1,3.8c-13.4,5.7-42.1,44-65.1,88l-38.3,76.6h201h201L7317.9-1555.7z M8008.9-1546.2c40.2-38.3,72.7-78.5,72.7-86.1c0-7.6-88-15.3-197.1-15.3c-191.4,0-199.1,1.9-245,53.6c-114.8,124.4-120.6,118.7,99.5,118.7h197.2L8008.9-1546.2z M2211.2-1785.4c-9.6-13.4-47.9-61.2-82.3-105.3l-63.2-82.3H1838c-124.4,0-225.9,5.7-225.9,13.4c0,7.7,40.2,55.5,90,105.3l90,91.9h218.2C2182.5-1762.4,2224.6-1768.2,2211.2-1785.4z M2971.1-1772c0-5.7-26.8-51.7-59.3-105.3l-59.3-95.7h-227.8c-124.4,0-227.8,5.7-227.8,11.5c0,7.6,30.6,53.6,68.9,105.3l68.9,93.8h218.2C2873.5-1762.4,2971.1-1766.3,2971.1-1772z M3717.6-1779.7c0-9.6-17.2-57.4-38.3-105.3l-36.4-88.1h-231.6c-126.3,0-229.7,3.8-229.7,9.6c0,5.7,21.1,53.6,47.9,105.3l47.9,95.7h220.1C3618-1762.4,3717.6-1770.1,3717.6-1779.7z M4464.1-1808.4c0-24.9-5.7-72.7-11.5-105.3l-11.5-59.3h-227.8c-124.4,0-229.7,5.7-233.5,15.3c-3.8,7.7,5.7,53.6,19.1,105.3l26.8,90h220.1C4462.1-1762.4,4464.1-1762.4,4464.1-1808.4z M5225.9-1871.5l5.7-101.4h-229.7h-231.6v105.3v107.2l225.9-5.8l224-5.7L5225.9-1871.5z M5993.4-1846.7c11.5-47.9,21-95.7,21-105.3c0-13.4-80.4-21.1-227.8-21.1c-252.6,0-250.7-1.9-250.7,149.3v61.3h218.2h218.2L5993.4-1846.7z M6757.1-1848.6c23-47.9,42.1-95.7,42.1-107.2c0-11.5-84.2-17.2-223.9-13.4c-248.8,5.7-246.9,5.7-283.3,155l-13.4,51.7h218.2H6715L6757.1-1848.6z M8428.1-1997.9c120.6-128.3,235.4-252.7,254.6-277.5l36.4-42.1h-256.5h-256.5l-134,172.3l-134,170.4l-396.2,1.9h-398.1l-47.9,78.5c-91.9,143.6-135.9,132.1,520.6,132.1h593.4L8428.1-1997.9z M1956.6-2091.7c0-9.6-36.4-63.2-80.4-120.6l-82.3-103.3h-252.7c-139.7-1.9-254.6,3.8-254.6,9.6c0,5.7,47.9,61.2,109.1,124.4l107.2,112.9l227.8-1.9C1855.2-2072.5,1956.6-2082.1,1956.6-2091.7z M2779.7-2091.7c0-9.6-28.7-65.1-61.3-122.5l-63.2-103.4h-254.6h-254.6l34.5,59.3c19.1,32.5,59.3,88,88,122.5l53.6,65.1H2550C2689.7-2072.5,2779.7-2080.2,2779.7-2091.7z M3602.7-2087.8c0-9.6-17.2-65.1-40.2-124.4l-38.3-105.3h-258.4c-141.6,0-256.5,3.8-256.5,9.6c0,23,101.4,210.5,120.6,224C3160.6-2064.9,3602.7-2068.7,3602.7-2087.8z M4410.5-2154.8c-11.5-174.2,9.6-162.7-283.3-162.7c-218.2,0-258.4,3.8-250.7,26.8c5.7,15.3,21.1,65.1,32.5,111c13.4,45.9,26.8,88,30.6,93.8c3.8,7.6,112.9,11.5,241.2,9.6l235.4-1.9L4410.5-2154.8z M5245-2198.8l5.7-120.6l-254.6,5.7l-252.7,5.7l5.7,105.3c1.9,57.4,7.7,111,13.4,116.8c3.8,5.7,112.9,11.5,241.2,9.6l235.4-1.9L5245-2198.8z M5993.4-2078.3c65.1-11.5,72.7-19.1,93.8-97.6c40.2-151.2,53.6-143.6-229.7-137.8l-254.6,5.7l-13.4,95.7c-7.6,53.6-11.5,105.3-7.6,114.8C5589.5-2074.4,5890-2061,5993.4-2078.3z M6929.4-2198.8l63.2-120.6l-260.3,5.7l-262.2,5.7l-38.3,103.4c-32.5,84.2-34.5,105.3-13.4,118.7c15.3,9.6,122.5,15.3,237.4,13.4l210.5-5.7L6929.4-2198.8z M7664.4-2082.1c26.8-5.7,116.8-114.8,176.1-210.5c11.5-19.1-42.1-24.9-245-24.9h-258.4l-57.4,103.4c-32.5,55.5-59.3,112.9-59.3,124.4c0,17.2,57.4,23,206.7,19.1C7540-2072.5,7647.1-2076.3,7664.4-2082.1z M1627.4-2508.9c-3.8-9.6-53.6-78.5-111-153.1l-105.3-134h-283.3c-168.4,0-281.4,7.7-277.5,17.2c3.8,11.5,65.1,80.4,137.8,153.1l130.2,135.9h258.4C1535.5-2489.8,1631.2-2497.4,1627.4-2508.9z M6181-2512.8c17.2-23,82.3-237.3,82.3-269.9c0-7.7-1003-13.4-2229.9-13.4c-1226.9,0-2229.9,5.7-2229.9,11.5c0,17.2,176.1,264.2,199.1,279.5c11.5,7.7,953.2,15.3,2090.2,15.3C5727.3-2489.8,6167.6-2495.5,6181-2512.8z M7147.6-2633.3c40.2-72.7,72.7-139.7,72.7-147.4c0-9.6-128.2-15.3-285.2-15.3H6648l-38.3,105.3c-21,57.4-44,126.3-51.7,153.1l-11.5,49.8l264.1-5.8l266.1-5.7L7147.6-2633.3z M8070.2-2612.3c141.6-199.1,155-185.7-172.3-179.9l-283.3,5.7l-80.4,134c-45.9,74.7-82.3,139.7-82.3,149.3c-1.9,7.7,118.7,13.4,264.2,13.4h266L8070.2-2612.3z M9015.7-2631.4c76.6-78.5,137.8-147.4,137.8-153.1c0-5.7-128.2-11.5-283.3-11.5H8587l-101.5,124.4c-153.1,191.4-160.8,181.8,135.9,181.8h258.4L9015.7-2631.4z"/></g></g>
</svg>