<?xml version="1.0" encoding="utf-8"?>
<!-- Svg Vector Icons : http://www.onlinewebfonts.com/icon -->
<!DOCTYPE svg PUBLIC "-//W3C//DTD SVG 1.1//EN" "http://www.w3.org/Graphics/SVG/1.1/DTD/svg11.dtd">
<svg version="1.1" xmlns="http://www.w3.org/2000/svg" xmlns:xlink="http://www.w3.org/1999/xlink" x="0px" y="0px" viewBox="0 0 1000 1000" enable-background="new 0 0 1000 1000" xml:space="preserve">
<metadata> Svg Vector Icons : http://www.onlinewebfonts.com/icon </metadata>
<g><path d="M250.8,785.5l2.7,34.7l8.8-0.7l-36-456.9H266V352h-3.9l-38.3-21.6l-5.1-64.5h81.5v-10.5h-4.3l0.4-1.1l-80.9-30.7l-3-38.4h49.9v-10.1l0.3-0.4l-53.4-37.6v-0.4h-0.5l-0.8-0.6l-0.4,0.6H160v0.4l-4-0.3l-0.4-0.5l-0.6,0.4l-0.1,0l0,0.1l-53.4,37.8h-0.4v10.5H151l-3.2,40.4l-79.1,30.2l1.5,3.9v6.3h74.5l-4.8,60.5L94.5,352h-2v10.5h44.6l-4.7,60l-31.3,397l8.8,0.7l2.7-34.7H250.8z M124.3,775.3l59.2-45.7l59.2,45.7H124.3z M234.1,586H133.9l50.1-35.9L234.1,586z M143.9,510.8h80.3L184,539.6L143.9,510.8z M229.4,596.2l-47.5,31.5l-47.5-31.5H229.4z M235.1,673.4H128.7l53.2-35.3L235.1,673.4z M228.7,683.6l-45.2,34.9l-45.2-34.9H228.7z M242.8,683.6l6.8,85.8L190.7,724l51.7-39.9l-0.3-0.5H242.8z M241.5,667.3l-51.8-34.4l46.6-30.9L241.5,667.3z M234.3,575.6l-42.9-30.8l38.3-27.5L234.3,575.6z M138.7,500.6l44.8-31.5l44.8,31.5H138.7z M213.1,422.5h-62.6l31.3-25.5L213.1,422.5z M153.1,362.5h57.4l-28.7,23.4L153.1,362.5z M220.4,432.7l-36.9,25.9l-36.9-25.9H220.4z M244.7,352h-19.2l-0.9-11.3L244.7,352z M227.5,489.6l-36.6-25.7l32.7-23L227.5,489.6z M221.9,418.6l-33.3-27.2l29.3-23.9L221.9,418.6z M275.1,255.4h-57.3l-1.8-22.4L275.1,255.4z M247.7,174.6h-36.2l-2.1-27L247.7,174.6z M210,267.9l4.1,52.3l-26.8-28.3L210,267.9z M206.3,323.8h-49.2l24.6-26L206.3,323.8z M162.8,266h37.8l-18.9,20L162.8,266z M163,145.3h37.4l2.3,29.4h-42L163,145.3z M159.8,185.2h43.7l2.9,36.8H157L159.8,185.2z M156.3,230.5h50.8l2,24.9h-54.7L156.3,230.5z M116.2,174.6l37.8-26.8l-2.1,26.8H116.2z M153.3,267.9l22.7,24l-26.8,28.3L153.3,267.9z M148.3,332.4h61.5l5.6,3.1l1.3,16.5h-69.9L148.3,332.4z M95.6,255.4l51.4-19.6l-1.5,19.6H95.6z M145.5,367.4l29.5,24.1l-33.6,27.4L145.5,367.4z M112,352l27.2-15.3l-1.2,15.3H112z M139.9,438.4l36.1,25.4l-40.4,28.4L139.9,438.4z M134.2,510.8h0.4l-0.4,0.6L134.2,510.8z M133.9,514.2l42.7,30.7l-47.9,34.3L133.9,514.2z M128.5,582.8l2.3,3.2h-2.6L128.5,582.8z M127.1,601.7l47,31.2l-52.2,34.6L127.1,601.7z M120.6,683.6h3.5l52.3,40.4l-62.8,48.5L120.6,683.6z"/><path d="M846.5,785.5l2.7,34.7l8.8-0.7l-36-456.9h39.7V352h-3.9l-38.3-21.6l-5.1-64.5h81.5v-10.5h-4.3l0.4-1.1l-80.9-30.7l-3-38.4H858v-10.1l0.3-0.4l-53.4-37.6v-0.4h-0.5l-0.8-0.6l-0.4,0.6h-47.4v0.4l-4-0.3l-0.4-0.5l-0.6,0.4l-0.1,0l0,0.1l-53.4,37.8h-0.4v10.5h49.9l-3.2,40.4l-79.1,30.2l1.5,3.9v6.3h74.5l-4.8,60.5L690.2,352h-2v10.5h44.6l-4.7,60l-31.3,397l8.8,0.7l2.7-34.7L846.5,785.5L846.5,785.5z M720.1,775.3l59.2-45.7l59.2,45.7H720.1z M829.8,586H729.7l50.1-35.9L829.8,586z M739.6,510.8h80.3l-40.2,28.8L739.6,510.8z M825.1,596.2l-47.5,31.5l-47.5-31.5H825.1z M830.8,673.4H724.4l53.2-35.3L830.8,673.4z M824.4,683.6l-45.2,34.9l-45.2-34.9H824.4z M838.5,683.6l6.8,85.8L786.4,724l51.7-39.9l-0.3-0.5H838.5z M837.2,667.3l-51.8-34.4L832,602L837.2,667.3z M830,575.6l-42.9-30.8l38.3-27.5L830,575.6z M734.4,500.6l44.8-31.5l44.8,31.5H734.4z M808.8,422.5h-62.6l31.3-25.5L808.8,422.5z M748.8,362.5h57.4l-28.7,23.4L748.8,362.5z M816.1,432.7l-36.9,25.9l-36.9-25.9H816.1z M840.4,352h-19.2l-0.9-11.3L840.4,352z M823.2,489.6l-36.6-25.7l32.7-23L823.2,489.6z M817.6,418.6l-33.3-27.2l29.3-23.9L817.6,418.6z M870.9,255.4h-57.3l-1.8-22.4L870.9,255.4z M843.4,174.6h-36.2l-2.1-27L843.4,174.6z M805.7,267.9l4.1,52.3l-26.8-28.3L805.7,267.9z M802,323.8h-49.2l24.6-26L802,323.8z M758.5,266h37.8l-18.9,20L758.5,266z M758.7,145.3h37.4l2.3,29.4h-42L758.7,145.3z M755.6,185.2h43.7l2.9,36.8h-49.5L755.6,185.2z M752,230.5h50.8l2,24.9H750L752,230.5z M711.9,174.6l37.8-26.8l-2.1,26.8H711.9z M749.1,267.9l22.7,24l-26.8,28.3L749.1,267.9z M744,332.4h61.5l5.6,3.1l1.3,16.5h-69.9L744,332.4z M691.3,255.4l51.4-19.6l-1.5,19.6H691.3z M741.2,367.4l29.5,24.1l-33.6,27.4L741.2,367.4z M707.7,352l27.2-15.3l-1.2,15.3H707.7z M735.6,438.4l36.1,25.4l-40.4,28.4L735.6,438.4z M729.9,510.8h0.4l-0.4,0.6L729.9,510.8z M729.7,514.2l42.7,30.7l-47.9,34.3L729.7,514.2z M724.3,582.8l2.3,3.2H724L724.3,582.8z M722.8,601.7l47,31.2l-52.2,34.6L722.8,601.7z M716.3,683.6h3.5l52.3,40.4l-62.8,48.5L716.3,683.6z"/><path d="M357.7,309.6l-57.5,21.9l1.1,2.8v4.6h54.1l-3.5,44l-33,18.6h-1.5v7.7h32.4l-3.4,43.6l-22.7,288.5l6.4,0.5l2-25.2h100.4l2,25.2l6.4-0.5l-26.1-332.1h28.9v-7.7h-2.9l-27.8-15.7l-3.7-46.9h59.2v-7.7h-3.2l0.3-0.8l-58.8-22.3l-2.2-27.9h36.3v-7.3l0.2-0.3l-38.8-27.3V245h-0.4l-0.6-0.4L401,245h-34.5v0.3l-2.9-0.2l-0.3-0.4l-0.5,0.3l-0.1,0l0,0.1L324,272.6h-0.3v7.7H360L357.7,309.6z M361.7,340.3l16.5,17.4l-19.5,20.6L361.7,340.3z M368.5,338.9H396l-13.7,14.5L368.5,338.9z M400.2,381h-35.8l17.9-18.9L400.2,381z M319.7,331.3l37.4-14.3l-1.1,14.3H319.7z M356,412.7l21.5,17.5L353,450.1L356,412.7z M359.6,452.7l22.8-18.6l22.8,18.6H359.6z M410.4,460.1L383.6,479l-26.8-18.9H410.4z M361.5,409.1h41.7l-20.9,17L361.5,409.1z M331.6,401.5l19.7-11.1l-0.9,11.1H331.6z M351.9,464.3l26.3,18.5l-29.3,20.6L351.9,464.3z M347.8,516.9h0.3l-0.3,0.4L347.8,516.9z M347.6,519.3l31.1,22.3l-34.8,25L347.6,519.3z M343.7,635.1l38.7-25.7l38.7,25.7H343.7z M416.5,642.5l-32.8,25.4l-32.8-25.4H416.5z M347.9,579H417l-34.5,22.9L347.9,579z M347.6,571.6l36.4-26.1l36.4,26.1H347.6z M354.8,516.9h58.4L384,537.8L354.8,516.9z M343.7,569.2l1.7,2.3h-1.9L343.7,569.2z M342.6,583l34.2,22.7l-37.9,25.2L342.6,583z M337.9,642.5h2.6l38,29.4l-45.7,35.3L337.9,642.5z M340.6,709.1l43-33.2l43,33.2H340.6z M426.7,642.5l4.9,62.4l-42.7-33l37.5-29l-0.2-0.4H426.7L426.7,642.5z M425.7,630.6l-37.6-25l33.9-22.5L425.7,630.6z M420.5,564l-31.2-22.4l27.8-20L420.5,564z M351,509.5l32.6-22.9l32.6,22.9H351z M428.1,401.5h-14l-0.6-8.2L428.1,401.5z M415.6,501.5L389,482.8l23.8-16.7L415.6,501.5z M411.5,449.9l-24.2-19.8l21.3-17.4L411.5,449.9z M450.2,331.3h-41.6l-1.3-16.3L450.2,331.3z M406.8,389.5l0.9,12h-50.8l1.1-14.3h44.7L406.8,389.5z M430.2,272.6H404l-1.5-19.6L430.2,272.6z M402.9,340.4l3,38l-19.5-20.6L402.9,340.4z M368.7,251.2h27.2l1.7,21.3H367L368.7,251.2z M366.4,280.2h31.7l2.1,26.7h-36L366.4,280.2z M363.8,313.2h36.9l1.4,18.1h-39.8L363.8,313.2z M334.7,272.6l27.5-19.5l-1.5,19.5H334.7z"/><path d="M483.2,331.5l1.1,2.8v4.6h54.1l-3.5,44l-33,18.6h-1.5v7.7h32.4l-3.4,43.6l-22.7,288.5l6.4,0.5l2-25.2h100.4l2,25.2l6.4-0.5l-26.1-332.1h28.9v-7.7h-2.9l-27.8-15.7l-3.7-46.9h59.2v-7.7h-3.2l0.3-0.8l-58.8-22.3l-2.2-27.9h36.3v-7.3l0.2-0.3l-38.8-27.3V245h-0.4l-0.6-0.4L584,245h-34.5v0.3l-2.9-0.2l-0.3-0.4l-0.5,0.3l-0.1,0l0,0.1L507,272.6h-0.3v7.7H543l-2.3,29.3L483.2,331.5z M502.8,331.3l37.4-14.3l-1.1,14.3H502.8z M539,412.7l21.5,17.5l-24.4,19.9L539,412.7z M542.7,452.7l22.8-18.6l22.8,18.6H542.7z M593.4,460.1L566.6,479l-26.8-18.9H593.4z M544.5,409.1h41.7l-20.9,17L544.5,409.1z M514.6,401.5l19.7-11.1l-0.9,11.1H514.6z M535,464.3l26.3,18.5l-29.3,20.6L535,464.3z M530.8,516.9h0.3l-0.3,0.4L530.8,516.9z M530.6,519.3l31.1,22.3l-34.8,25L530.6,519.3z M526.8,635.1l38.7-25.7l38.7,25.7H526.8z M599.5,642.5l-32.8,25.4l-32.8-25.4H599.5z M530.9,579H600l-34.5,22.9L530.9,579z M530.6,571.6l36.4-26.1l36.4,26.1H530.6z M537.8,516.9h58.4L567,537.8L537.8,516.9z M526.7,569.2l1.7,2.3h-1.9L526.7,569.2z M525.6,583l34.2,22.7l-37.9,25.2L525.6,583z M520.9,642.5h2.6l38,29.4l-45.7,35.3L520.9,642.5z M523.7,709.1l43-33.2l43,33.2H523.7z M609.7,642.5l4.9,62.4l-42.8-33l37.5-29l-0.2-0.4H609.7L609.7,642.5z M608.8,630.6l-37.6-25l33.9-22.5L608.8,630.6z M603.5,564l-31.2-22.4l27.8-20L603.5,564z M534.1,509.5l32.6-22.9l32.6,22.9H534.1z M611.1,401.5h-14l-0.6-8.2L611.1,401.5z M598.6,501.5L572,482.8l23.8-16.7L598.6,501.5z M594.6,449.9l-24.2-19.8l21.3-17.4L594.6,449.9z M633.3,331.3h-41.6l-1.3-16.3L633.3,331.3z M613.3,272.6H587l-1.5-19.6L613.3,272.6z M585.9,340.4l3,38l-19.5-20.6L585.9,340.4z M583.2,381h-35.8l17.9-18.9L583.2,381z M551.6,338.9h27.5l-13.7,14.5L551.6,338.9z M551.7,251.2h27.2l1.7,21.3h-30.5L551.7,251.2z M549.5,280.2h31.7l2.1,26.7h-36L549.5,280.2z M546.9,313.2h36.9l1.4,18.1h-39.8L546.9,313.2z M517.7,272.6l27.5-19.5l-1.5,19.5H517.7z M544.7,340.3l16.5,17.4l-19.5,20.6L544.7,340.3z M585.8,387.2l4,2.3l0.9,12h-50.8l1.1-14.3H585.8z"/><path d="M849.2,820.1H705.6H253.5H109.9H10v43.7h980v-43.7H849.2z"/></g>
</svg>