<?xml version="1.0" encoding="utf-8"?>
<!-- Svg Vector Icons : http://www.onlinewebfonts.com/icon -->
<!DOCTYPE svg PUBLIC "-//W3C//DTD SVG 1.1//EN" "http://www.w3.org/Graphics/SVG/1.1/DTD/svg11.dtd">
<svg version="1.1" xmlns="http://www.w3.org/2000/svg" xmlns:xlink="http://www.w3.org/1999/xlink" x="0px" y="0px" viewBox="0 0 1000 1000" enable-background="new 0 0 1000 1000" xml:space="preserve">
<metadata> Svg Vector Icons : http://www.onlinewebfonts.com/icon </metadata>
<g><g transform="translate(0.000000,511.000000) scale(0.100000,-0.100000)"><path d="M2421.9,4954.1c-56.6-54.2-58.9-73.1-58.9-318.2s2.4-264,58.9-318.2c35.4-37.7,84.9-58.9,129.6-58.9s94.3,21.2,129.6,58.9c56.6,54.2,58.9,73.1,58.9,318.2s-2.4,264-58.9,318.2c-35.4,37.7-84.9,58.9-129.6,58.9S2457.2,4991.9,2421.9,4954.1z"/><path d="M734.1,4379c-106.1-106.1-84.9-183.9,103.7-377.2c174.4-176.8,254.6-219.2,353.6-186.2c87.2,30.6,139.1,141.4,108.4,231c-35.4,96.7-327.7,372.4-414.9,391.3C821.3,4449.7,797.7,4440.3,734.1,4379z"/><path d="M3954.1,4402.5c-37.7-23.6-132-106.1-205.1-186.2c-136.7-143.8-162.6-214.5-122.6-322.9c21.2-51.9,139.1-101.4,209.8-87.2c30.6,4.7,136.7,91.9,233.4,193.3c139.1,143.8,179.2,198,179.2,249.9c-2.4,77.8-35.4,132-110.8,169.7C4067.2,4456.8,4036.6,4454.4,3954.1,4402.5z"/><path d="M2252.2,3846.2c-344.2-75.4-695.4-346.5-865.1-667.1c-205.1-391.3-205.1-841.5-2.4-1228.1c162.6-306.4,320.6-403.1,447.9-273.4c80.1,77.8,75.4,167.4-21.2,301.7c-148.5,209.8-188.6,332.4-190.9,582.2c0,202.7,7.1,238.1,75.4,381.9c103.7,219.2,235.7,355.9,450.2,462c169.7,82.5,190.9,87.2,403.1,87.2c205.1,0,240.4-7.1,381.9-73.1c84.9-40.1,209.8-122.6,275.8-183.9c68.4-58.9,143.8-108.4,169.7-108.4c143.8,0,240.4,132,188.6,261.7c-66,157.9-464.4,405.4-749.6,466.7C2652.9,3888.7,2436,3886.3,2252.2,3846.2z"/><path d="M5085.6,3846.2c-888.7-143.8-1673.6-641.2-2161.6-1364.8c-167.4-252.2-273.4-457.3-360.7-702.5l-63.6-179.1l-226.3,11.8c-1030.1,54.2-1961.2-686-2138-1701.9c-169.7-978.3,360.7-1925.9,1287.1-2296c374.8-148.5,252.2-146.1,4019.1-139.1l3415.7,7.1l155.6,61.3c223.9,87.2,358.3,172.1,504.5,315.9c634.1,636.5,455,1720.8-348.9,2107.4c-106.1,51.8-245.2,103.7-311.2,113.1c-117.9,21.2-117.9,21.2-110.8,101.4c2.4,44.8,7.1,264,9.4,483.2c7.1,459.7-25.9,664.8-160.3,1053.7c-96.7,275.8-183.9,457.3-334.7,690.7C7794,3136.7,7025.6,3657.6,6177,3822.7C5901.2,3876.9,5349.6,3888.7,5085.6,3846.2z M6129.8,3447.9c862.8-188.6,1577-737.8,1970.7-1515.7c252.2-504.4,348.9-1117.3,261.6-1657.1c-70.7-419.6-70.7-422-14.1-480.9c44.8-47.1,82.5-56.6,264-66c183.9-11.8,235.7-25.9,384.2-99c207.4-101.4,344.2-240.4,445.5-457.3c68.4-143.8,75.4-179.2,75.4-381.9c0-202.7-7.1-238.1-75.4-381.9c-103.7-219.2-235.7-355.9-450.2-462l-179.2-87.2H5335.4H1856.1l-188.6,63.7c-273.4,94.3-469.1,216.9-683.6,431.4c-214.5,214.5-339.4,412.5-429,683.6c-54.2,167.3-61.3,226.3-61.3,506.8c0,280.5,7.1,339.5,61.3,506.8C590.3,154.8,656.3,308,705.8,392.9c115.5,195.6,424.3,504.4,620,619.9c322.9,188.6,719,261.7,1105.5,205.1c334.7-47.1,334.7-49.5,462,353.6c35.4,110.8,113.1,294.7,172.1,410.2c403.1,785,1173.9,1343.6,2055.5,1487.4C5370.8,3511.5,5891.7,3499.7,6129.8,3447.9z"/><path d="M158.9,2691.2c-37.7-35.4-58.9-84.9-58.9-129.6s21.2-94.3,58.9-129.6c54.2-56.6,73.1-58.9,318.2-58.9s264,2.4,318.2,58.9c37.7,35.4,58.9,84.9,58.9,129.6s-21.2,94.3-58.9,129.6c-54.2,56.6-73.1,58.9-318.2,58.9S213.1,2747.8,158.9,2691.2z"/><path d="M4114.4-3150.1c-207.4-207.4-242.8-254.6-242.8-318.2c0-103.7,89.6-193.3,193.3-193.3c63.6,0,110.8,35.4,318.2,242.8c207.4,207.4,242.8,254.6,242.8,318.2c0,51.9-21.2,96.7-58.9,134.4c-37.7,37.7-82.5,58.9-134.4,58.9C4369-2907.3,4321.8-2942.6,4114.4-3150.1z"/><path d="M5623-3150.1c-207.4-207.4-242.8-254.6-242.8-318.2c0-103.7,89.6-193.3,193.3-193.3c63.7,0,110.8,35.4,318.2,242.8s242.8,254.6,242.8,318.2c0,103.7-89.6,193.3-193.3,193.3C5877.6-2907.3,5830.4-2942.6,5623-3150.1z"/><path d="M7131.6-3150.1c-207.4-207.4-242.8-254.6-242.8-318.2c0-103.7,89.6-193.3,193.3-193.3c63.7,0,110.8,35.4,318.2,242.8s242.8,254.6,242.8,318.2c0,103.7-89.6,193.3-193.3,193.3C7386.2-2907.3,7339.1-2942.6,7131.6-3150.1z"/><path d="M2982.9-4281.5c-207.4-207.4-242.8-254.6-242.8-318.2c0-103.7,89.6-193.3,193.3-193.3c63.6,0,110.8,35.4,318.2,242.8c207.4,207.4,242.8,254.6,242.8,318.2c0,103.7-89.6,193.3-193.3,193.3C3237.5-4038.7,3190.3-4074.1,2982.9-4281.5z"/><path d="M4491.5-4281.5c-207.4-207.4-242.8-254.6-242.8-318.2c0-103.7,89.6-193.3,193.3-193.3c63.6,0,110.8,35.4,318.2,242.8c207.4,207.4,242.8,254.6,242.8,318.2c0,103.7-89.6,193.3-193.3,193.3C4746.1-4038.7,4699-4074.1,4491.5-4281.5z"/><path d="M6000.2-4281.5c-207.4-207.4-242.8-254.6-242.8-318.2c0-103.7,89.6-193.3,193.3-193.3c63.7,0,110.8,35.4,318.2,242.8s242.8,254.6,242.8,318.2c0,103.7-89.6,193.3-193.3,193.3C6254.7-4038.7,6207.6-4074.1,6000.2-4281.5z"/></g></g>
</svg>